<svg xmlns="http://www.w3.org/2000/svg"
     width="50" height="48"
     viewBox="0 0 300 300">
  <!-- Dark rounded background -->
  <rect width="100%" height="100%"
        fill="#242938"
        rx="60"/>
  <!-- Center icon -->
  <g transform="translate(160,180) scale(0.18,-0.18) translate(-512,-500)">
    <path d="M 967,288 L 1003,288 C 1003,182.667 986,106 952,58 C 918,10 875,-14 823,-14 C 781,-14 740.667,1.667 702,33 C 663.333,64.333 628.667,149.333 598,288 L 512,676 L 214,0 L 25,0 L 453,922 C 430.333,1041.333 403,1129.667 371,1187 C 339,1244.333 299.333,1273 252,1273 C 214,1273 181,1258.667 153,1230 C 125,1201.333 109,1156.333 105,1095 L 69,1095 C 71,1193 90.667,1271.333 128,1330 C 165.333,1388.667 212,1418.333 268,1419 C 304,1419 338,1404.333 370,1375 C 402,1345.667 430,1295 454,1223 C 478,1151 515,1002.333 565,777 L 636,460 C 664.667,328.667 694.667,241 726,197 C 757.333,153 795.333,130.667 840,130 C 914.667,130 957,182.667 967,288 z"
          fill="#ffffff"/>
  </g>
</svg>
